<svg width="40" height="40" viewBox="0 0 40 40" fill="none" xmlns="http://www.w3.org/2000/svg">
<rect width="40" height="40" rx="8" fill="#1C1C1C"/>
<path d="M31 25.3723L30.4404 23.7518L27.0176 25.9509L26.5681 24.2129L29.8898 22.1607L28.7661 18.7547L25.5073 20.8069L22.053 9H19.5809L16.6592 17.3624L11.8902 9L9 10.7313L15.0815 21.5346L11.825 30.9955H15.5737L17.0548 25.1395L19.2909 29.0427L23.5341 26.3306L23.9836 27.9127L20.0393 30.4711L20.4102 31L24.2308 28.9478L24.7252 31H28.566L27.4423 27.2279L31 25.3723ZM20.4371 24.1179L18.3538 20.3571L20.1517 13.5383L22.6239 22.6511L20.4371 24.1179Z" fill="#F5F5F5"/>
</svg>
