<svg width="14" height="14" viewBox="0 0 14 14" fill="none" xmlns="http://www.w3.org/2000/svg">
<path d="M7 0C7.95517 0 8.77388 0.341131 9.45614 1.02339C10.1384 1.70565 10.4795 2.53119 10.4795 3.5C10.4795 4.46881 10.1384 5.29435 9.45614 5.97661C8.77388 6.65887 7.95517 7 7 7C6.04483 7 5.22612 6.65887 4.54386 5.97661C3.8616 5.29435 3.52047 4.46881 3.52047 3.5C3.52047 2.53119 3.8616 1.70565 4.54386 1.02339C5.22612 0.341131 6.04483 0 7 0ZM7 8.76023C8.25536 8.76023 9.42203 8.91715 10.5 9.23099C11.578 9.54483 12.4308 9.96784 13.0585 10.5C13.6862 11.0322 14 11.6121 14 12.2398V14H0V12.2398C0 11.6121 0.31384 11.0322 0.941521 10.5C1.5692 9.96784 2.42203 9.54483 3.5 9.23099C4.57797 8.91715 5.74464 8.76023 7 8.76023Z" fill="#F5F5F5"/>
</svg>
