<svg width="14" height="14" viewBox="0 0 14 14" fill="none" xmlns="http://www.w3.org/2000/svg">
<path d="M1.38028 2.79343H0V12.6197C0 12.9922 0.136933 13.3153 0.410798 13.5892C0.684664 13.8631 1.00782 14 1.38028 14H11.2066V12.6197H1.38028V2.79343ZM12.6197 0H4.20657C3.81221 0 3.47809 0.136933 3.20423 0.410798C2.93036 0.684664 2.79343 1.00782 2.79343 1.38028V9.79343C2.79343 10.1878 2.93036 10.5219 3.20423 10.7958C3.47809 11.0696 3.81221 11.2066 4.20657 11.2066H12.6197C12.9922 11.2066 13.3153 11.0696 13.5892 10.7958C13.8631 10.5219 14 10.1878 14 9.79343V1.38028C14 1.00782 13.8631 0.684664 13.5892 0.410798C13.3153 0.136933 12.9922 0 12.6197 0ZM5.58685 9.10329H4.20657V7.69014H5.58685V9.10329ZM5.58685 6.30986H4.20657V4.89671H5.58685V6.30986ZM5.58685 3.48357H4.20657V2.10329H5.58685V3.48357ZM12.6197 9.10329H11.2066V7.69014H12.6197V9.10329ZM12.6197 6.30986H11.2066V4.89671H12.6197V6.30986ZM12.6197 3.48357H11.2066V2.10329H12.6197V3.48357Z" fill="#F5F5F5"/>
</svg>
