<svg width="14" height="14" viewBox="0 0 14 14" fill="none" xmlns="http://www.w3.org/2000/svg">
<path d="M5.21716 9.53674e-07C6.14298 9.53674e-07 7.00626 0.231458 7.80697 0.69437C8.60769 1.15728 9.2395 1.7891 9.70241 2.58981C10.1653 3.39053 10.3968 4.26631 10.3968 5.21716C10.3968 6.4933 9.98391 7.6193 9.15818 8.59517L9.38338 8.82038H10.0214L14 12.7989L12.7989 14L8.82037 10.0214V9.38338L8.59517 9.15818C7.6193 9.98391 6.4933 10.3968 5.21716 10.3968C4.26631 10.3968 3.39053 10.1653 2.58981 9.70241C1.7891 9.2395 1.15728 8.60769 0.69437 7.80697C0.231457 7.00626 0 6.13673 0 5.19839C0 4.26005 0.231457 3.39053 0.69437 2.58981C1.15728 1.7891 1.7891 1.15728 2.58981 0.69437C3.39053 0.231458 4.26631 9.53674e-07 5.21716 9.53674e-07ZM5.21716 1.61394C4.21626 1.61394 3.3655 1.96425 2.66488 2.66488C1.96425 3.36551 1.61394 4.21626 1.61394 5.21716C1.61394 6.21805 1.96425 7.06881 2.66488 7.76944C3.3655 8.47006 4.21626 8.82038 5.21716 8.82038C6.21805 8.82038 7.06881 8.47006 7.76944 7.76944C8.47006 7.06881 8.82037 6.21805 8.82037 5.21716C8.82037 4.21626 8.47006 3.36551 7.76944 2.66488C7.06881 1.96425 6.21805 1.61394 5.21716 1.61394Z" fill="#F5F5F5"/>
</svg>
