<svg width="14" height="14" viewBox="0 0 14 14" fill="none" xmlns="http://www.w3.org/2000/svg">
<path d="M7 9.46479C6.30315 9.46479 5.70745 9.22379 5.21291 8.74178C4.71837 8.25978 4.4711 7.67919 4.4711 7C4.4711 6.32081 4.71837 5.74022 5.21291 5.25822C5.70745 4.77621 6.30315 4.53521 7 4.53521C7.69685 4.53521 8.29255 4.77621 8.78709 5.25822C9.28163 5.74022 9.5289 6.32081 9.5289 7C9.5289 7.67919 9.28163 8.25978 8.78709 8.74178C8.29255 9.22379 7.69685 9.46479 7 9.46479ZM12.3613 7.69014C12.3838 7.42723 12.395 7.19718 12.395 7C12.395 6.80282 12.3838 6.57277 12.3613 6.30986L13.8786 5.15963C13.9461 5.0939 13.9854 5.02269 13.9966 4.94601C14.0079 4.86933 13.991 4.78717 13.9461 4.69953L12.4961 2.26761C12.4737 2.20188 12.4175 2.15258 12.3276 2.11972C12.2376 2.08685 12.1477 2.09233 12.0578 2.13615L10.2707 2.82629C9.86609 2.51956 9.46146 2.28952 9.05684 2.13615L8.78709 0.295775C8.78709 0.208138 8.75337 0.136933 8.68594 0.08216C8.6185 0.0273876 8.53982 9.53674e-07 8.4499 9.53674e-07H5.5501C5.46018 9.53674e-07 5.3815 0.0273876 5.31407 0.08216C5.24663 0.136933 5.21291 0.208138 5.21291 0.295775L4.94316 2.13615C4.53854 2.28952 4.13391 2.51956 3.72929 2.82629L1.9422 2.13615C1.85228 2.09233 1.76236 2.08685 1.67245 2.11972C1.58253 2.15258 1.52633 2.20188 1.50385 2.26761L0.0539499 4.69953C0.00899165 4.78717 -0.00786769 4.86933 0.00337187 4.94601C0.0146114 5.02269 0.0539499 5.0939 0.121387 5.15963L1.63873 6.30986C1.61625 6.57277 1.60501 6.80282 1.60501 7C1.60501 7.19718 1.61625 7.42723 1.63873 7.69014L0.121387 8.84038C0.0539499 8.9061 0.0146114 8.97731 0.00337187 9.05399C-0.00786769 9.13067 0.00899165 9.21283 0.0539499 9.30047L1.50385 11.7324C1.52633 11.7981 1.58253 11.8474 1.67245 11.8803C1.76236 11.9131 1.85228 11.9077 1.9422 11.8638L3.72929 11.1737C4.13391 11.4804 4.53854 11.7105 4.94316 11.8638L5.21291 13.7042C5.21291 13.7919 5.24663 13.8631 5.31407 13.9178C5.3815 13.9726 5.46018 14 5.5501 14H8.4499C8.53982 14 8.6185 13.9726 8.68594 13.9178C8.75337 13.8631 8.78709 13.7919 8.78709 13.7042L9.05684 11.8638C9.48394 11.6886 9.88857 11.4585 10.2707 11.1737L12.0578 11.8638C12.1477 11.9077 12.2376 11.9131 12.3276 11.8803C12.4175 11.8474 12.4737 11.7981 12.4961 11.7324L13.9461 9.30047C13.991 9.21283 14.0079 9.13067 13.9966 9.05399C13.9854 8.97731 13.9461 8.9061 13.8786 8.84038L12.3613 7.69014Z" fill="#F5F5F5"/>
</svg>
