<svg width="16" height="12" viewBox="0 0 16 12" fill="none" xmlns="http://www.w3.org/2000/svg">
<path d="M8 0.5C12 0.5 16 3.64912 16 6C16 8.35088 12 11.5 8 11.5C4 11.5 0 8.35088 0 6C0 3.64912 4 0.5 8 0.5ZM8 1.83784C4.70923 1.83784 1.38462 4.45554 1.38462 6C1.38462 7.54446 4.70923 10.1622 8 10.1622C11.2908 10.1622 14.6154 7.54446 14.6154 6C14.6154 4.45554 11.2908 1.83784 8 1.83784ZM8 3.47297C8.69364 3.47297 9.35888 3.73921 9.84936 4.21312C10.3398 4.68703 10.6154 5.32979 10.6154 6C10.6154 6.67021 10.3398 7.31297 9.84936 7.78688C9.35888 8.26079 8.69364 8.52703 8 8.52703C7.30636 8.52703 6.64112 8.26079 6.15064 7.78688C5.66016 7.31297 5.38462 6.67021 5.38462 6C5.38462 5.32979 5.66016 4.68703 6.15064 4.21312C6.64112 3.73921 7.30636 3.47297 8 3.47297ZM8 4.81081C7.83837 4.81081 7.67833 4.84157 7.52901 4.90133C7.37968 4.96109 7.244 5.04869 7.12971 5.15912C7.01543 5.26954 6.92477 5.40064 6.86292 5.54492C6.80106 5.6892 6.76923 5.84383 6.76923 6C6.76923 6.15617 6.80106 6.3108 6.86292 6.45508C6.92477 6.59936 7.01543 6.73046 7.12971 6.84088C7.244 6.95131 7.37968 7.03891 7.52901 7.09867C7.67833 7.15843 7.83837 7.18919 8 7.18919C8.32642 7.18919 8.63947 7.0639 8.87029 6.84088C9.1011 6.61787 9.23077 6.31539 9.23077 6C9.23077 5.68461 9.1011 5.38213 8.87029 5.15912C8.63947 4.9361 8.32642 4.81081 8 4.81081Z" fill="#616161"/>
</svg>
