<svg width="10" height="11" viewBox="0 0 10 11" fill="none" xmlns="http://www.w3.org/2000/svg">
<path d="M5.88061 5.49947L9.81526 1.57065C9.93286 1.45303 9.99893 1.29351 9.99893 1.12717C9.99893 0.960834 9.93286 0.801311 9.81526 0.683694C9.69765 0.566077 9.53815 0.5 9.37183 0.5C9.20551 0.5 9.04601 0.566077 8.9284 0.683694L5 4.61876L1.0716 0.683694C0.953993 0.566077 0.794487 0.5 0.628169 0.5C0.461851 0.5 0.302345 0.566077 0.18474 0.683694C0.0671355 0.801311 0.001066 0.960834 0.001066 1.12717C0.001066 1.29351 0.0671355 1.45303 0.18474 1.57065L4.11939 5.49947L0.18474 9.42829C0.126202 9.48635 0.0797396 9.55544 0.0480322 9.63155C0.0163247 9.70767 0 9.78931 0 9.87176C0 9.95422 0.0163247 10.0359 0.0480322 10.112C0.0797396 10.1881 0.126202 10.2572 0.18474 10.3152C0.2428 10.3738 0.311875 10.4203 0.387982 10.452C0.464089 10.4837 0.545721 10.5 0.628169 10.5C0.710616 10.5 0.792248 10.4837 0.868355 10.452C0.944462 10.4203 1.01354 10.3738 1.0716 10.3152L5 6.38017L8.9284 10.3152C8.98646 10.3738 9.05554 10.4203 9.13165 10.452C9.20775 10.4837 9.28938 10.5 9.37183 10.5C9.45428 10.5 9.53591 10.4837 9.61202 10.452C9.68812 10.4203 9.7572 10.3738 9.81526 10.3152C9.8738 10.2572 9.92026 10.1881 9.95197 10.112C9.98368 10.0359 10 9.95422 10 9.87176C10 9.78931 9.98368 9.70767 9.95197 9.63155C9.92026 9.55544 9.8738 9.48635 9.81526 9.42829L5.88061 5.49947Z" fill="#616161"/>
</svg>
